<svg width="18" height="10" viewBox="0 0 18 10" fill="none" xmlns="http://www.w3.org/2000/svg">
<path d="M14.0625 5.55545H3.9375C3.6225 5.55545 3.375 5.311 3.375 4.99989C3.375 4.68878 3.6225 4.44434 3.9375 4.44434H14.0625C14.3775 4.44434 14.625 4.68878 14.625 4.99989C14.625 5.311 14.3775 5.55545 14.0625 5.55545Z" fill="#277451"/>
<path d="M11.25 9.44456C11.1762 9.44545 11.1031 9.43108 11.0353 9.40237C10.9675 9.37367 10.9065 9.33127 10.8563 9.27789C10.6313 9.05567 10.6313 8.71123 10.8563 8.489L14.4 4.989L10.8563 1.489C10.6313 1.26678 10.6313 0.922336 10.8563 0.700114C11.0813 0.477892 11.43 0.477892 11.655 0.700114L15.5925 4.589C15.8175 4.81123 15.8175 5.15567 15.5925 5.37789L11.655 9.26678C11.5425 9.37789 11.3963 9.43345 11.2613 9.43345L11.25 9.44456Z" fill="#277451"/>
</svg>
