<svg width="27" height="29" viewBox="0 0 27 29" fill="none" xmlns="http://www.w3.org/2000/svg">
<path d="M2.36449 17.197C2.10931 17.1979 1.85911 17.1264 1.64298 16.9907C1.42684 16.855 1.25364 16.6608 1.14348 16.4306C1.03333 16.2004 0.990756 15.9437 1.0207 15.6903C1.05065 15.4369 1.15189 15.1971 1.31266 14.999L14.6629 1.24414C14.7631 1.12855 14.8995 1.05044 15.0499 1.02263C15.2003 0.994815 15.3557 1.01896 15.4905 1.09109C15.6254 1.16323 15.7317 1.27907 15.7921 1.4196C15.8524 1.56012 15.8632 1.717 15.8226 1.86446L13.2335 9.9825C13.1572 10.1868 13.1315 10.4066 13.1588 10.6231C13.186 10.8395 13.2654 11.046 13.39 11.2251C13.5147 11.4041 13.6809 11.5502 13.8744 11.6508C14.0679 11.7515 14.283 11.8037 14.5011 11.803H23.9407C24.1959 11.8021 24.4461 11.8737 24.6622 12.0093C24.8783 12.145 25.0515 12.3392 25.1617 12.5694C25.2718 12.7996 25.3144 13.0563 25.2845 13.3097C25.2545 13.5632 25.1533 13.8029 24.9925 14.0011L11.6423 27.7559C11.5421 27.8715 11.4056 27.9496 11.2553 27.9774C11.1049 28.0052 10.9495 27.9811 10.8146 27.9089C10.6798 27.8368 10.5734 27.721 10.5131 27.5804C10.4528 27.4399 10.442 27.283 10.4825 27.1356L13.0717 19.0175C13.148 18.8132 13.1737 18.5934 13.1464 18.377C13.1191 18.1606 13.0398 17.954 12.9151 17.775C12.7905 17.596 12.6243 17.4499 12.4308 17.3492C12.2372 17.2485 12.0222 17.1963 11.8041 17.197H2.36449Z" stroke="#FF961F" stroke-width="2" stroke-linecap="round" stroke-linejoin="round"/>
</svg>
