<svg width="20" height="20" viewBox="0 0 20 20" fill="none" xmlns="http://www.w3.org/2000/svg">
<path d="M0.769231 17.1795C0.769231 17.7235 0.985347 18.2453 1.37004 18.63C1.75473 19.0147 2.27648 19.2308 2.82051 19.2308H17.1795C17.7235 19.2308 18.2453 19.0147 18.63 18.63C19.0147 18.2453 19.2308 17.7235 19.2308 17.1795V6.41026C19.2309 6.31826 19.2062 6.22793 19.1594 6.14873C19.1126 6.06954 19.0453 6.0044 18.9647 5.96014C18.884 5.91588 18.7929 5.89413 18.701 5.89718C18.609 5.90022 18.5196 5.92794 18.4421 5.97744L13.8656 8.89436C13.7881 8.94385 13.6987 8.97158 13.6067 8.97462C13.5148 8.97766 13.4237 8.95591 13.343 8.91166C13.2624 8.8674 13.1951 8.80226 13.1483 8.72306C13.1015 8.64387 13.0768 8.55354 13.0769 8.46154V6.41026C13.077 6.31826 13.0524 6.22793 13.0055 6.14873C12.9587 6.06954 12.8915 6.0044 12.8108 5.96014C12.7302 5.91588 12.6391 5.89413 12.5471 5.89718C12.4552 5.90022 12.3658 5.92794 12.2882 5.97744L7.71282 8.89436C7.63526 8.94412 7.54571 8.97207 7.45361 8.97525C7.36151 8.97843 7.27025 8.95674 7.18943 8.91245C7.10861 8.86816 7.04123 8.8029 6.99436 8.72356C6.94748 8.64421 6.92286 8.5537 6.92308 8.46154V2.82051C6.92308 2.27648 6.70696 1.75473 6.32227 1.37004C5.93758 0.985347 5.41583 0.769231 4.87179 0.769231H2.82051C2.27648 0.769231 1.75473 0.985347 1.37004 1.37004C0.985347 1.75473 0.769231 2.27648 0.769231 2.82051V17.1795Z" stroke="#2D6A4F" stroke-width="1.5" stroke-linecap="round" stroke-linejoin="round"/>
</svg>
