<svg width="37" height="36" viewBox="0 0 37 36" fill="none" xmlns="http://www.w3.org/2000/svg">
<path d="M18.5807 23.4444L13.1248 18.1374L14.2163 17.0574L17.8099 20.5539V7.57886H19.3516V20.5539L22.9436 17.0589L24.0367 18.1374L18.5807 23.4444ZM10.2804 28.5789C9.5702 28.5789 8.97769 28.3479 8.50285 27.8859C8.02802 27.4239 7.79009 26.8469 7.78906 26.1549V22.5204H9.33073V26.1549C9.33073 26.3859 9.4294 26.5979 9.62673 26.7909C9.82406 26.9839 10.0414 27.0799 10.2789 27.0789H26.8826C27.119 27.0789 27.3364 26.9829 27.5347 26.7909C27.7331 26.5989 27.8318 26.3869 27.8307 26.1549V22.5204H29.3724V26.1549C29.3724 26.8459 29.135 27.4224 28.6601 27.8844C28.1853 28.3464 27.5923 28.5779 26.8811 28.5789H10.2804Z" fill="white"/>
</svg>
